<?xml version="1.0" encoding="UTF-8"?>
<svg width="16px" height="15px" viewBox="0 0 16 15" version="1.1" xmlns="http://www.w3.org/2000/svg" xmlns:xlink="http://www.w3.org/1999/xlink">
    <!-- Generator: sketchtool 58 (101010) - https://sketch.com -->
    <title>F1A1C7A4-71F5-4805-B759-D2895C5694D3@3.00x</title>
    <desc>Created with sketchtool.</desc>
    <g id="HANDOFF" stroke="none" stroke-width="1" fill="none" fill-rule="evenodd">
        <g id="SMS_Auth" transform="translate(-69.000000, -473.000000)" fill="#B0B9C0">
            <g id="Group-4" transform="translate(68.000000, 467.000000)">
                <g id="ic/Clock" transform="translate(0.000000, 5.000000)">
                    <path d="M15.39,9.63 C15.39,11.7300105 14.5600083,13.4099937 12.9,14.67 L13.71,15.48 C13.8500007,15.6400008 13.8500007,15.7899993 13.71,15.93 C13.6499997,15.9900003 13.5700005,16.02 13.47,16.02 C13.3899996,16.02 13.3200003,15.9900003 13.26,15.93 L12.39,15.03 C11.3499948,15.6900033 10.2200061,16.02 9,16.02 C7.7799939,16.02 6.6500052,15.6900033 5.61,15.03 L4.74,15.93 C4.6799997,15.9900003 4.61,16.02 4.53,16.02 C4.4299995,16.02 4.3500003,15.9900003 4.29,15.93 C4.1499993,15.7899993 4.1499993,15.6400008 4.29,15.48 L5.1,14.67 C3.4399917,13.4099937 2.61,11.7300105 2.61,9.63 C2.61,7.8499911 3.23499375,6.33500625 4.485,5.085 C5.73500625,3.83499375 7.2399912,3.21 9,3.21 C10.7600088,3.21 12.2649937,3.83499375 13.515,5.085 C14.7650063,6.33500625 15.39,7.8499911 15.39,9.63 Z M13.05,13.71 C14.1900057,12.5699943 14.76,11.2100079 14.76,9.63 C14.76,8.0499921 14.2000056,6.69500565 13.08,5.565 C11.9599944,4.43499435 10.600008,3.87 9,3.87 C7.399992,3.87 6.0400056,4.43499435 4.92,5.565 C3.7999944,6.69500565 3.24,8.0499921 3.24,9.63 C3.24,11.2100079 3.80499435,12.5649943 4.935,13.695 C6.06500565,14.8250056 7.4199921,15.39 9,15.39 C10.5800079,15.39 11.9299944,14.8300056 13.05,13.71 Z M9.33,5.79 C9.530001,5.79 9.63,5.889999 9.63,6.09 L9.63,9.72 C9.63,9.9400011 9.530001,10.05 9.33,10.05 L6.75,10.05 C6.549999,10.05 6.45,9.9400011 6.45,9.72 C6.45,9.4999989 6.549999,9.39 6.75,9.39 L9,9.39 L9,6.09 C9,5.889999 9.1099989,5.79 9.33,5.79 Z M2.82,6.33 C2.7599997,6.3900003 2.6900004,6.42 2.61,6.42 C2.5099995,6.42 2.4300003,6.3900003 2.37,6.33 C1.7899971,5.7499971 1.5,5.0800038 1.5,4.32 C1.5,3.5599962 1.7899971,2.9000028 2.37,2.34 C2.9300028,1.7799972 3.5899962,1.5 4.35,1.5 C5.0900037,1.5 5.759997,1.7799972 6.36,2.34 C6.5200008,2.5 6.5200008,2.6499993 6.36,2.79 C6.1999992,2.9500008 6.0400008,2.9500008 5.88,2.79 C5.4599979,2.3699979 4.950003,2.16 4.35,2.16 C3.749997,2.16 3.2400021,2.3699979 2.82,2.79 C2.3799978,3.2500023 2.16,3.7699971 2.16,4.35 C2.16,4.9300029 2.3799978,5.4399978 2.82,5.88 C2.9800008,6.0400008 2.9800008,6.1899993 2.82,6.33 Z M15.63,2.34 C16.2100029,2.9000028 16.5,3.5599962 16.5,4.32 C16.5,5.0800038 16.2100029,5.7499971 15.63,6.33 C15.5699997,6.3900003 15.4900005,6.42 15.39,6.42 C15.3099996,6.42 15.2400003,6.3900003 15.18,6.33 C15.0199994,6.1899993 15.0199994,6.0400008 15.18,5.88 C15.6200022,5.4399978 15.84,4.9300029 15.84,4.35 C15.84,3.7699971 15.6200022,3.2500023 15.18,2.79 C14.7599979,2.3699979 14.250003,2.16 13.65,2.16 C13.049997,2.16 12.5400021,2.3699979 12.12,2.79 C11.9599992,2.9500008 11.8000008,2.9500008 11.64,2.79 C11.4799992,2.6499993 11.4799992,2.5 11.64,2.34 C12.240003,1.7799972 12.9099963,1.5 13.65,1.5 C14.4100038,1.5 15.0699972,1.7799972 15.63,2.34 Z" id=""></path>
                </g>
            </g>
        </g>
    </g>
</svg>
